<?xml version="1.0" encoding="UTF-8" standalone="no"?>
<!DOCTYPE svg PUBLIC "-//W3C//DTD SVG 1.1//EN"
 "http://www.w3.org/Graphics/SVG/1.1/DTD/svg11.dtd">
<!-- Generated by graphviz version 2.40.1 (20161225.0304)
 -->
<!-- Title: dependencies Pages: 1 -->
<svg width="510pt" height="211pt"
 viewBox="0.00 0.00 510.00 211.00" xmlns="http://www.w3.org/2000/svg" xmlns:xlink="http://www.w3.org/1999/xlink">
<g id="graph0" class="graph" transform="scale(1 1) rotate(0) translate(4 207)">
<title>dependencies</title>
<polygon fill="#ffffff" stroke="transparent" points="-4,4 -4,-207 506,-207 506,4 -4,4"/>
<text text-anchor="start" x="230.0091" y="-42.4" font-family="sans-serif" font-weight="bold" font-size="14.00" fill="#000000">Legend</text>
<polygon fill="#ffffb3" stroke="transparent" points="17,-10 17,-30 37,-30 37,-10 17,-10"/>
<text text-anchor="start" x="40.629" y="-15.4" font-family="sans-serif" font-size="14.00" fill="#000000"> &#160;Declarations</text>
<polygon fill="#8dd3c7" stroke="transparent" points="130,-10 130,-30 150,-30 150,-10 130,-10"/>
<text text-anchor="start" x="153.7251" y="-15.4" font-family="sans-serif" font-size="14.00" fill="#000000"> &#160;Module</text>
<polygon fill="#80b1d3" stroke="transparent" points="216,-10 216,-30 236,-30 236,-10 216,-10"/>
<text text-anchor="start" x="239.7812" y="-15.4" font-family="sans-serif" font-size="14.00" fill="#000000"> &#160;Bootstrap</text>
<polygon fill="#fdb462" stroke="transparent" points="313,-10 313,-30 333,-30 333,-10 313,-10"/>
<text text-anchor="start" x="336.6732" y="-15.4" font-family="sans-serif" font-size="14.00" fill="#000000"> &#160;Providers</text>
<polygon fill="#fb8072" stroke="transparent" points="409,-10 409,-30 429,-30 429,-10 409,-10"/>
<text text-anchor="start" x="432.7258" y="-15.4" font-family="sans-serif" font-size="14.00" fill="#000000"> &#160;Exports</text>
<g id="clust1" class="cluster">
<title>cluster_AppModule</title>
<polygon fill="none" stroke="#000000" stroke-dasharray="1,5" points="8,-70 8,-195 494,-195 494,-70 8,-70"/>
</g>
<g id="clust3" class="cluster">
<title>cluster_AppModule_imports</title>
<polygon fill="none" stroke="#000000" points="16,-78 16,-130 486,-130 486,-78 16,-78"/>
</g>
<!-- DailyBalanceModule -->
<g id="node1" class="node">
<title>DailyBalanceModule</title>
<polygon fill="#8dd3c7" stroke="#000000" points="477.7381,-122 474.7381,-126 453.7381,-126 450.7381,-122 342.2619,-122 342.2619,-86 477.7381,-86 477.7381,-122"/>
<text text-anchor="middle" x="410" y="-99.8" font-family="Times,serif" font-size="14.00" fill="#000000">DailyBalanceModule</text>
</g>
<!-- AppModule -->
<g id="node5" class="node">
<title>AppModule</title>
<polygon fill="#8dd3c7" stroke="#000000" points="272.6571,-187 269.6571,-191 248.6571,-191 245.6571,-187 189.3429,-187 189.3429,-151 272.6571,-151 272.6571,-187"/>
<text text-anchor="middle" x="231" y="-164.8" font-family="Times,serif" font-size="14.00" fill="#000000">AppModule</text>
</g>
<!-- DailyBalanceModule&#45;&gt;AppModule -->
<g id="edge1" class="edge">
<title>DailyBalanceModule&#45;&gt;AppModule</title>
<path fill="none" stroke="#000000" d="M410,-122.1061C410,-141.3391 410,-169 410,-169 410,-169 282.9675,-169 282.9675,-169"/>
<polygon fill="#000000" stroke="#000000" points="282.9676,-165.5001 272.9675,-169 282.9675,-172.5001 282.9676,-165.5001"/>
</g>
<!-- MeModule -->
<g id="node2" class="node">
<title>MeModule</title>
<polygon fill="#8dd3c7" stroke="#000000" points="324.2093,-122 321.2093,-126 300.2093,-126 297.2093,-122 245.7907,-122 245.7907,-86 324.2093,-86 324.2093,-122"/>
<text text-anchor="middle" x="285" y="-99.8" font-family="Times,serif" font-size="14.00" fill="#000000">MeModule</text>
</g>
<!-- MeModule&#45;&gt;AppModule -->
<g id="edge2" class="edge">
<title>MeModule&#45;&gt;AppModule</title>
<path fill="none" stroke="#000000" d="M259.3619,-122.1061C259.3619,-122.1061 259.3619,-140.991 259.3619,-140.991"/>
<polygon fill="#000000" stroke="#000000" points="255.8619,-140.9909 259.3619,-150.991 262.8619,-140.991 255.8619,-140.9909"/>
</g>
<!-- Oauth2Module -->
<g id="node3" class="node">
<title>Oauth2Module</title>
<polygon fill="#8dd3c7" stroke="#000000" points="228.2619,-122 225.2619,-126 204.2619,-126 201.2619,-122 127.7381,-122 127.7381,-86 228.2619,-86 228.2619,-122"/>
<text text-anchor="middle" x="178" y="-99.8" font-family="Times,serif" font-size="14.00" fill="#000000">Oauth2Module</text>
</g>
<!-- Oauth2Module&#45;&gt;AppModule -->
<g id="edge3" class="edge">
<title>Oauth2Module&#45;&gt;AppModule</title>
<path fill="none" stroke="#000000" d="M208.7763,-122.1061C208.7763,-122.1061 208.7763,-140.991 208.7763,-140.991"/>
<polygon fill="#000000" stroke="#000000" points="205.2764,-140.9909 208.7763,-150.991 212.2764,-140.991 205.2764,-140.9909"/>
</g>
<!-- UserModule -->
<g id="node4" class="node">
<title>UserModule</title>
<polygon fill="#8dd3c7" stroke="#000000" points="109.9762,-122 106.9762,-126 85.9762,-126 82.9762,-122 24.0238,-122 24.0238,-86 109.9762,-86 109.9762,-122"/>
<text text-anchor="middle" x="67" y="-99.8" font-family="Times,serif" font-size="14.00" fill="#000000">UserModule</text>
</g>
<!-- UserModule&#45;&gt;AppModule -->
<g id="edge4" class="edge">
<title>UserModule&#45;&gt;AppModule</title>
<path fill="none" stroke="#000000" d="M67,-122.1061C67,-141.3391 67,-169 67,-169 67,-169 179.1915,-169 179.1915,-169"/>
<polygon fill="#000000" stroke="#000000" points="179.1916,-172.5001 189.1915,-169 179.1915,-165.5001 179.1916,-172.5001"/>
</g>
</g>
</svg>
