<?xml version="1.0" encoding="UTF-8" standalone="no"?>
<!DOCTYPE svg PUBLIC "-//W3C//DTD SVG 1.1//EN"
 "http://www.w3.org/Graphics/SVG/1.1/DTD/svg11.dtd">
<!-- Generated by graphviz version 2.40.1 (20161225.0304)
 -->
<!-- Title: dependencies Pages: 1 -->
<svg width="504pt" height="287pt"
 viewBox="0.00 0.00 504.00 287.00" xmlns="http://www.w3.org/2000/svg" xmlns:xlink="http://www.w3.org/1999/xlink">
<g id="graph0" class="graph" transform="scale(1 1) rotate(0) translate(4 283)">
<title>dependencies</title>
<polygon fill="#ffffff" stroke="transparent" points="-4,4 -4,-283 500,-283 500,4 -4,4"/>
<text text-anchor="start" x="227.0091" y="-42.4" font-family="sans-serif" font-weight="bold" font-size="14.00" fill="#000000">Legend</text>
<polygon fill="#ffffb3" stroke="transparent" points="14,-10 14,-30 34,-30 34,-10 14,-10"/>
<text text-anchor="start" x="37.629" y="-15.4" font-family="sans-serif" font-size="14.00" fill="#000000"> &#160;Declarations</text>
<polygon fill="#8dd3c7" stroke="transparent" points="127,-10 127,-30 147,-30 147,-10 127,-10"/>
<text text-anchor="start" x="150.7251" y="-15.4" font-family="sans-serif" font-size="14.00" fill="#000000"> &#160;Module</text>
<polygon fill="#80b1d3" stroke="transparent" points="213,-10 213,-30 233,-30 233,-10 213,-10"/>
<text text-anchor="start" x="236.7812" y="-15.4" font-family="sans-serif" font-size="14.00" fill="#000000"> &#160;Bootstrap</text>
<polygon fill="#fdb462" stroke="transparent" points="310,-10 310,-30 330,-30 330,-10 310,-10"/>
<text text-anchor="start" x="333.6732" y="-15.4" font-family="sans-serif" font-size="14.00" fill="#000000"> &#160;Providers</text>
<polygon fill="#fb8072" stroke="transparent" points="406,-10 406,-30 426,-30 426,-10 406,-10"/>
<text text-anchor="start" x="429.7258" y="-15.4" font-family="sans-serif" font-size="14.00" fill="#000000"> &#160;Exports</text>
<g id="clust1" class="cluster">
<title>cluster_AppModule</title>
<polygon fill="none" stroke="#000000" stroke-dasharray="1,5" points="112.5,-146 112.5,-271 368.5,-271 368.5,-146 112.5,-146"/>
</g>
<g id="clust3" class="cluster">
<title>cluster_AppModule_imports</title>
<polygon fill="none" stroke="#000000" points="258.5,-154 258.5,-206 360.5,-206 360.5,-154 258.5,-154"/>
</g>
<g id="clust6" class="cluster">
<title>cluster_AppModule_providers</title>
<polygon fill="none" stroke="#000000" points="120.5,-154 120.5,-206 250.5,-206 250.5,-154 120.5,-154"/>
</g>
<g id="clust7" class="cluster">
<title>cluster_UserModule</title>
<polygon fill="none" stroke="#000000" stroke-dasharray="1,5" points="235.5,-70 235.5,-138 383.5,-138 383.5,-70 235.5,-70"/>
</g>
<g id="clust12" class="cluster">
<title>cluster_UserModule_providers</title>
<polygon fill="none" stroke="#000000" points="243.5,-78 243.5,-130 375.5,-130 375.5,-78 243.5,-78"/>
</g>
<!-- UserModule -->
<g id="node1" class="node">
<title>UserModule</title>
<polygon fill="#8dd3c7" stroke="#000000" points="352.4762,-198 349.4762,-202 328.4762,-202 325.4762,-198 266.5238,-198 266.5238,-162 352.4762,-162 352.4762,-198"/>
<text text-anchor="middle" x="309.5" y="-175.8" font-family="Times,serif" font-size="14.00" fill="#000000">UserModule</text>
</g>
<!-- AppModule -->
<g id="node2" class="node">
<title>AppModule</title>
<polygon fill="#8dd3c7" stroke="#000000" points="289.1571,-263 286.1571,-267 265.1571,-267 262.1571,-263 205.8429,-263 205.8429,-227 289.1571,-227 289.1571,-263"/>
<text text-anchor="middle" x="247.5" y="-240.8" font-family="Times,serif" font-size="14.00" fill="#000000">AppModule</text>
</g>
<!-- UserModule&#45;&gt;AppModule -->
<g id="edge1" class="edge">
<title>UserModule&#45;&gt;AppModule</title>
<path fill="none" stroke="#000000" d="M277.9201,-198.1061C277.9201,-198.1061 277.9201,-216.991 277.9201,-216.991"/>
<polygon fill="#000000" stroke="#000000" points="274.4201,-216.9909 277.9201,-226.991 281.4201,-216.991 274.4201,-216.9909"/>
</g>
<!-- AppService -->
<g id="node3" class="node">
<title>AppService</title>
<ellipse fill="#fdb462" stroke="#000000" cx="185.5" cy="-180" rx="56.7406" ry="18"/>
<text text-anchor="middle" x="185.5" y="-175.8" font-family="Times,serif" font-size="14.00" fill="#000000">AppService</text>
</g>
<!-- AppService&#45;&gt;AppModule -->
<g id="edge2" class="edge">
<title>AppService&#45;&gt;AppModule</title>
<path fill="none" stroke="#000000" d="M223.896,-193.468C223.896,-193.468 223.896,-216.8642 223.896,-216.8642"/>
<polygon fill="#000000" stroke="#000000" points="220.3961,-216.8641 223.896,-226.8642 227.3961,-216.8642 220.3961,-216.8641"/>
</g>
<!-- UserService -->
<g id="node4" class="node">
<title>UserService</title>
<ellipse fill="#fdb462" stroke="#000000" cx="309.5" cy="-104" rx="58.4415" ry="18"/>
<text text-anchor="middle" x="309.5" y="-99.8" font-family="Times,serif" font-size="14.00" fill="#000000">UserService</text>
</g>
<!-- UserService&#45;&gt;UserModule -->
<g id="edge3" class="edge">
<title>UserService&#45;&gt;UserModule</title>
<path fill="none" stroke="#000000" d="M309.5,-122.0109C309.5,-122.0109 309.5,-151.855 309.5,-151.855"/>
<polygon fill="#000000" stroke="#000000" points="306.0001,-151.8549 309.5,-161.855 313.0001,-151.855 306.0001,-151.8549"/>
</g>
</g>
</svg>
